<svg width="627" height="627" viewBox="0 0 627 627" fill="none" xmlns="http://www.w3.org/2000/svg">
<path d="M313.417 0.808105C486.115 0.808105 626.322 141.015 626.322 313.713C626.322 486.412 486.115 626.619 313.417 626.619H0.511719V313.713C0.511719 141.015 140.719 0.808105 313.417 0.808105Z" fill="white"/>
<path d="M467.786 439.244C459.395 433.994 448.594 435.391 441.65 442.424C426.17 458.08 405.917 465.451 383.783 465.451C334.451 465.451 297.416 430.38 297.416 376.811C297.416 323.242 334.451 288.605 383.783 288.605C405.82 288.605 426.074 295.928 441.505 311.488C448.497 318.569 459.444 319.918 467.834 314.523L468.075 314.378C479.022 307.345 481.096 292.026 472.078 282.632C450.86 260.376 419.901 248.814 384.217 248.814C361.697 248.814 341.057 253.342 323.07 261.58C331.461 247.802 341.347 236.289 352.149 227.81C354.415 226.028 355.379 225.161 358.032 223.041C360.089 221.339 361.857 219.91 363.336 218.754C373.27 210.998 382.915 202.905 392.559 194.86C398.635 189.85 399.214 183.78 394.777 177.806C390.678 172.218 384.458 170.532 377.369 173.181C370.425 175.783 363.384 178.481 356.923 181.853C327.362 197.413 305.325 219.765 285.939 244.334C271.617 262.495 261.587 282.728 249.917 302.576C249.242 295.88 249.435 289.424 250.303 282.969C256.909 235.711 278.802 193.848 308.748 154.924C314.969 146.83 319.84 138.496 309.52 130.355C301.611 124.093 292.112 126.742 281.985 137.677C266.361 154.586 252.907 172.844 241.333 192.114C221.176 225.691 209.072 261.628 202.08 301.661C195.667 290.436 195.763 280.85 194.943 271.552C192.291 241.684 194.943 212.106 204.347 183.25C206.806 175.638 205.215 169.52 196.969 166.582C188.096 163.402 181.248 166.726 177.294 174.386C175.365 178.191 173.388 181.997 171.796 185.947C148.843 244.334 148.987 303.443 165.624 362.793C179.175 411.352 208.976 448.397 256.765 477.398C293.124 499.51 358.514 508.518 396.031 504.905C426.701 502.545 453.175 491.031 472.03 471.232C481.047 461.79 478.877 446.374 467.786 439.389V439.244Z" fill="#5D3BCB"/>
</svg>
