<svg width="626" height="627" viewBox="0 0 626 627" fill="none" xmlns="http://www.w3.org/2000/svg">
<path fill-rule="evenodd" clip-rule="evenodd" d="M625.947 313.305C625.947 140.607 485.74 0.400146 313.042 0.400146C140.344 0.400146 0.136719 140.607 0.136719 313.305V626.211H313.042C485.74 626.211 625.947 486.004 625.947 313.305ZM441.286 442.015C448.23 434.982 459.032 433.585 467.423 438.836V438.98C478.514 445.965 480.684 461.381 471.666 470.823C452.811 490.622 426.337 502.136 395.668 504.496C358.15 508.109 292.761 499.101 256.401 476.989C208.613 447.989 178.811 410.943 165.261 362.384C148.624 303.034 148.479 243.925 171.433 185.539C172.873 181.964 174.629 178.507 176.379 175.062C176.563 174.7 176.747 174.339 176.93 173.977C180.885 166.317 187.732 162.993 196.605 166.173C204.851 169.111 206.443 175.229 203.983 182.841C194.58 211.697 191.928 241.275 194.58 271.143C194.685 272.334 194.775 273.529 194.865 274.732C195.482 282.923 196.124 291.465 201.717 301.252C208.709 261.219 220.813 225.282 240.97 191.705C252.543 172.435 265.997 154.178 281.621 137.269C291.748 126.333 301.248 123.684 309.156 129.946C319.476 138.088 314.606 146.422 308.385 154.515C278.439 193.439 256.546 235.302 249.939 282.56C249.071 289.016 248.878 295.471 249.553 302.167C252.515 297.13 255.371 292.069 258.218 287.022C266.59 272.184 274.888 257.478 285.576 243.925C304.961 219.356 326.999 197.004 356.559 181.444C363.021 178.072 370.061 175.374 377.005 172.773C384.094 170.123 390.315 171.809 394.414 177.397C398.85 183.371 398.272 189.441 392.196 194.451C391.455 195.069 390.714 195.687 389.972 196.306C381.067 203.737 372.143 211.185 362.973 218.345C361.494 219.501 359.726 220.93 357.668 222.632C356.431 223.621 355.56 224.338 354.754 225.002C353.832 225.761 352.994 226.451 351.785 227.401C340.983 235.88 331.098 247.394 322.707 261.171C340.694 252.934 361.333 248.405 383.853 248.405C419.538 248.405 450.497 259.967 471.714 282.223C480.732 291.617 478.658 306.936 467.712 313.969L467.471 314.114C459.08 319.509 448.134 318.161 441.141 311.079C425.71 295.519 405.457 288.197 383.419 288.197C334.087 288.197 297.053 322.833 297.053 376.403C297.053 429.972 334.087 465.042 383.419 465.042C405.553 465.042 425.807 457.671 441.286 442.015Z" fill="black"/>
</svg>
