<svg width="627" height="627" viewBox="0 0 627 627" fill="none" xmlns="http://www.w3.org/2000/svg">
<path d="M313.429 0.808105C486.127 0.808105 626.334 141.015 626.334 313.713C626.334 486.412 486.127 626.619 313.429 626.619H0.523438V313.713C0.523438 141.015 140.73 0.808105 313.429 0.808105Z" fill="black"/>
<path d="M467.798 439.244C459.407 433.993 448.605 435.39 441.661 442.424C426.182 458.08 405.928 465.451 383.794 465.451C334.463 465.451 297.428 430.38 297.428 376.811C297.428 323.242 334.463 288.605 383.794 288.605C405.832 288.605 426.085 295.928 441.517 311.488C448.509 318.569 459.455 319.918 467.846 314.523L468.087 314.378C479.034 307.345 481.107 292.026 472.09 282.632C450.872 260.376 419.913 248.814 384.228 248.814C361.708 248.814 341.069 253.342 323.082 261.58C331.473 247.802 341.358 236.289 352.16 227.81C354.427 226.028 355.391 225.161 358.043 223.041C360.101 221.339 361.869 219.91 363.348 218.754C373.282 210.998 382.926 202.904 392.571 194.859C398.647 189.849 399.225 183.78 394.789 177.806C390.69 172.218 384.469 170.532 377.381 173.181C370.437 175.783 363.396 178.48 356.934 181.853C327.374 197.413 305.336 219.765 285.951 244.334C271.629 262.495 261.598 282.728 249.929 302.576C249.254 295.88 249.446 289.424 250.314 282.969C256.921 235.711 278.814 193.848 308.76 154.924C314.981 146.83 319.851 138.496 309.532 130.355C301.623 124.092 292.123 126.742 281.997 137.677C266.372 154.586 252.918 172.844 241.345 192.114C221.188 225.691 209.084 261.628 202.092 301.66C195.678 290.436 195.775 280.849 194.955 271.552C192.303 241.684 194.955 212.106 204.358 183.25C206.818 175.638 205.226 169.52 196.98 166.582C188.107 163.402 181.26 166.726 177.306 174.386C175.377 178.191 173.4 181.997 171.808 185.947C148.854 244.334 148.999 303.443 165.636 362.793C179.186 411.352 208.988 448.397 256.776 477.398C293.136 499.51 358.526 508.518 396.043 504.905C426.712 502.544 453.186 491.031 472.041 471.232C481.059 461.79 478.889 446.374 467.798 439.389V439.244Z" fill="white"/>
</svg>
