<svg width="627" height="627" viewBox="0 0 627 627" fill="none" xmlns="http://www.w3.org/2000/svg">
<path d="M313.405 0.808105C486.104 0.808105 626.311 141.015 626.311 313.713C626.311 486.412 486.104 626.619 313.405 626.619H0.5V313.713C0.5 141.015 140.707 0.808105 313.405 0.808105Z" fill="#5D3BCB"/>
<path d="M467.774 439.244C459.384 433.994 448.582 435.391 441.638 442.424C426.158 458.08 405.905 465.451 383.771 465.451C334.439 465.451 297.404 430.38 297.404 376.811C297.404 323.242 334.439 288.605 383.771 288.605C405.808 288.605 426.062 295.928 441.493 311.488C448.485 318.569 459.432 319.918 467.823 314.523L468.064 314.378C479.01 307.345 481.084 292.026 472.066 282.632C450.848 260.376 419.889 248.814 384.205 248.814C361.685 248.814 341.046 253.342 323.059 261.58C331.449 247.802 341.335 236.289 352.137 227.81C354.403 226.028 355.368 225.161 358.02 223.041C360.077 221.339 361.846 219.91 363.324 218.754C373.258 210.998 382.903 202.905 392.547 194.86C398.623 189.85 399.202 183.78 394.766 177.806C390.667 172.218 384.446 170.532 377.357 173.181C370.413 175.783 363.373 178.481 356.911 181.853C327.351 197.413 305.313 219.765 285.927 244.334C271.605 262.495 261.575 282.728 249.905 302.576C249.23 295.88 249.423 289.424 250.291 282.969C256.897 235.711 278.79 193.848 308.737 154.924C314.957 146.83 319.828 138.496 309.508 130.355C301.6 124.093 292.1 126.742 281.973 137.677C266.349 154.586 252.895 172.844 241.322 192.114C221.165 225.691 209.061 261.628 202.068 301.661C195.655 290.436 195.751 280.85 194.932 271.552C192.279 241.684 194.932 212.106 204.335 183.25C206.794 175.638 205.203 169.52 196.957 166.582C188.084 163.402 181.236 166.726 177.282 174.386C175.353 178.191 173.376 181.997 171.785 185.947C148.831 244.334 148.976 303.443 165.612 362.793C179.163 411.352 208.964 448.397 256.753 477.398C293.113 499.51 358.502 508.518 396.019 504.905C426.689 502.545 453.163 491.031 472.018 471.232C481.036 461.79 478.866 446.374 467.774 439.389V439.244Z" fill="white"/>
</svg>
