<svg width="83" height="26" viewBox="0 0 83 26" fill="none" xmlns="http://www.w3.org/2000/svg">
<path d="M78.4053 20.6858H77.1427V25.6061H75.5546V20.6858H74.5914V19.0977H75.5546V17.0541H77.1427V19.0977H78.4053V20.6858Z" fill="white"/>
<path d="M70.6492 25.7754C70.0504 25.7754 69.5037 25.6213 69.0091 25.3133C68.5188 25.0052 68.1261 24.5908 67.8311 24.0702C67.5404 23.5495 67.395 22.9746 67.395 22.3454C67.395 21.8725 67.4796 21.4299 67.6488 21.0177C67.8181 20.6012 68.0502 20.2367 68.3452 19.9243C68.6446 19.6076 68.9917 19.3602 69.3866 19.1823C69.7814 19.0044 70.2023 18.9155 70.6492 18.9155C71.1569 18.9155 71.6211 19.024 72.042 19.2409C72.4672 19.4535 72.8274 19.7464 73.1224 20.1196C73.4175 20.4927 73.6322 20.9179 73.7667 21.3952C73.9012 21.8725 73.9316 22.3715 73.8579 22.8921H69.1002C69.161 23.1351 69.2607 23.3542 69.3996 23.5495C69.5384 23.7404 69.7142 23.8944 69.9268 24.0116C70.1394 24.1244 70.3802 24.183 70.6492 24.1873C70.9269 24.1916 71.1786 24.1266 71.4042 23.9921C71.6341 23.8532 71.8251 23.6666 71.9769 23.4323L73.5975 23.8098C73.3328 24.3869 72.938 24.8598 72.413 25.2287C71.888 25.5931 71.3001 25.7754 70.6492 25.7754ZM69.0481 21.7011H72.2503C72.2025 21.4408 72.1006 21.2065 71.9444 20.9982C71.7925 20.7856 71.6038 20.6164 71.3782 20.4905C71.1525 20.3647 70.9095 20.3018 70.6492 20.3018C70.3889 20.3018 70.1481 20.3647 69.9268 20.4905C69.7055 20.612 69.5167 20.7791 69.3605 20.9917C69.2087 21.1999 69.1045 21.4364 69.0481 21.7011Z" fill="white"/>
<path d="M66.6159 21.4928V25.6061H65.0279V21.9094C65.0279 21.6534 64.965 21.4212 64.8391 21.213C64.7133 21.0004 64.5441 20.8333 64.3315 20.7118C64.1232 20.586 63.8911 20.5231 63.6351 20.5231C63.3791 20.5231 63.1448 20.586 62.9322 20.7118C62.7239 20.8333 62.5569 21.0004 62.431 21.213C62.3095 21.4212 62.2488 21.6534 62.2488 21.9094V25.6061H60.6607L60.6542 19.0977H62.2423L62.2488 19.677C62.4701 19.4427 62.7348 19.2583 63.0428 19.1238C63.3509 18.9849 63.6828 18.9155 64.0386 18.9155C64.5116 18.9155 64.9433 19.0326 65.3338 19.267C65.7243 19.4969 66.0345 19.8071 66.2645 20.1977C66.4988 20.5838 66.6159 21.0155 66.6159 21.4928Z" fill="white"/>
<path d="M57.5527 19.0977H59.1407V25.6061H57.5527V19.0977ZM58.3597 18.2581C58.1254 18.2581 57.928 18.1822 57.7675 18.0304C57.6069 17.8741 57.5266 17.6789 57.5266 17.4446C57.5266 17.2146 57.6069 17.0215 57.7675 16.8653C57.928 16.7091 58.1232 16.631 58.3532 16.631C58.5832 16.631 58.7763 16.7091 58.9325 16.8653C59.093 17.0215 59.1733 17.2146 59.1733 17.4446C59.1733 17.6789 59.0952 17.8741 58.939 18.0304C58.7828 18.1822 58.5897 18.2581 58.3597 18.2581Z" fill="white"/>
<path d="M53.2353 18.9155C53.8688 18.9155 54.4459 19.0695 54.9666 19.3776C55.4872 19.6857 55.9016 20.1 56.2097 20.6207C56.5177 21.137 56.6718 21.7098 56.6718 22.3389C56.6718 22.8119 56.5828 23.2566 56.4049 23.6732C56.227 24.0897 55.9797 24.4563 55.663 24.7731C55.3506 25.0855 54.9861 25.3306 54.5695 25.5085C54.1573 25.6864 53.7126 25.7754 53.2353 25.7754C52.8275 25.7754 52.4652 25.6843 52.1484 25.502C51.836 25.3154 51.5735 25.0746 51.3609 24.7796V25.6062H49.7728V15.8435H51.3609V19.9113C51.5735 19.6162 51.836 19.3776 52.1484 19.1954C52.4652 19.0088 52.8275 18.9155 53.2353 18.9155ZM53.2158 24.2394C53.5542 24.2394 53.8601 24.1548 54.1335 23.9856C54.4112 23.812 54.6325 23.582 54.7973 23.2957C54.9622 23.0093 55.0447 22.6904 55.0447 22.3389C55.0447 21.9918 54.9622 21.6751 54.7973 21.3887C54.6325 21.098 54.4112 20.868 54.1335 20.6988C53.8558 20.5296 53.5499 20.445 53.2158 20.445C52.886 20.445 52.591 20.5318 52.3307 20.7053C52.0703 20.8745 51.8664 21.1045 51.7189 21.3952C51.5713 21.6816 51.4976 21.9962 51.4976 22.3389C51.4976 22.6904 51.5713 23.0115 51.7189 23.3022C51.8664 23.5885 52.0703 23.8163 52.3307 23.9856C52.591 24.1548 52.886 24.2394 53.2158 24.2394Z" fill="white"/>
<path d="M46.8499 19.0977H48.438V25.6061H46.8499L46.7783 24.7991C46.6004 25.0898 46.3639 25.3263 46.0689 25.5085C45.7782 25.6864 45.4332 25.7754 45.0341 25.7754C44.5524 25.7754 44.1012 25.6842 43.6803 25.502C43.2594 25.3198 42.8885 25.0681 42.5674 24.747C42.2506 24.426 42.0011 24.055 41.8189 23.6341C41.641 23.2132 41.5521 22.762 41.5521 22.2803C41.5521 21.8161 41.6367 21.38 41.8059 20.9722C41.9795 20.5643 42.2203 20.2063 42.5283 19.8983C42.8364 19.5902 43.1922 19.3494 43.5957 19.1758C43.9992 19.0023 44.4331 18.9155 44.8974 18.9155C45.3269 18.9155 45.7109 19.011 46.0494 19.2019C46.3922 19.3928 46.6829 19.6358 46.9215 19.9308L46.8499 19.0977ZM44.995 24.2459C45.3334 24.2459 45.6328 24.1613 45.8932 23.9921C46.1535 23.8228 46.3574 23.595 46.505 23.3087C46.6525 23.018 46.7263 22.6991 46.7263 22.3519C46.7263 22.0005 46.6525 21.6816 46.505 21.3952C46.3574 21.1045 46.1513 20.8745 45.8867 20.7053C45.6263 20.5361 45.3291 20.4515 44.995 20.4515C44.6609 20.4515 44.355 20.5383 44.0773 20.7118C43.804 20.881 43.5849 21.1088 43.42 21.3952C43.2594 21.6816 43.1792 22.0005 43.1792 22.3519C43.1792 22.7034 43.2616 23.0223 43.4265 23.3087C43.5914 23.595 43.8105 23.8228 44.0838 23.9921C44.3615 24.1613 44.6653 24.2459 44.995 24.2459Z" fill="white"/>
<path d="M37.4778 25.7754C36.8617 25.7754 36.2824 25.6539 35.74 25.4109C35.1977 25.1636 34.7204 24.823 34.3082 24.3891C33.9003 23.9552 33.5792 23.454 33.3449 22.8856C33.115 22.3129 33 21.7011 33 21.0503C33 20.3951 33.115 19.7833 33.3449 19.2149C33.5792 18.6421 33.9003 18.141 34.3082 17.7114C34.7204 17.2775 35.1977 16.9391 35.74 16.6961C36.2824 16.4488 36.8617 16.3251 37.4778 16.3251C38.2154 16.3251 38.8945 16.4965 39.5149 16.8393C40.1354 17.1778 40.6496 17.6312 41.0574 18.1996L39.6386 18.9611C39.3826 18.6443 39.0637 18.3905 38.6818 18.1996C38.3044 18.0087 37.903 17.9132 37.4778 17.9132C37.0786 17.9132 36.7033 17.9956 36.3518 18.1605C36.0004 18.3211 35.6923 18.5467 35.4276 18.8374C35.163 19.1238 34.9569 19.4579 34.8093 19.8397C34.6618 20.2172 34.5881 20.6207 34.5881 21.0503C34.5881 21.4842 34.6618 21.8898 34.8093 22.2673C34.9612 22.6448 35.1695 22.9789 35.4341 23.2696C35.6988 23.556 36.0047 23.7816 36.3518 23.9465C36.7033 24.107 37.0786 24.1873 37.4778 24.1873C37.9117 24.1873 38.3152 24.0919 38.6884 23.9009C39.0658 23.7057 39.3826 23.4497 39.6386 23.1329L41.0574 23.9009C40.6496 24.465 40.1354 24.9184 39.5149 25.2612C38.8945 25.604 38.2154 25.7754 37.4778 25.7754Z" fill="white"/>
<path d="M81.412 4.60333H83V11.2354C83 11.704 82.9046 12.1292 82.7136 12.5111C82.5227 12.8972 82.2624 13.227 81.9326 13.5003C81.6029 13.778 81.2254 13.9906 80.8002 14.1382C80.375 14.29 79.928 14.3659 79.4594 14.3659C79.0038 14.3659 78.5656 14.2727 78.1447 14.0861C77.7239 13.8995 77.3507 13.6435 77.0253 13.3181C76.7042 12.997 76.4591 12.6304 76.2898 12.2182L77.7412 11.5608C77.828 11.7995 77.9582 12.0077 78.1317 12.1856C78.3096 12.3679 78.5135 12.5089 78.7435 12.6087C78.9735 12.7128 79.2121 12.7649 79.4594 12.7649C79.7111 12.7649 79.9519 12.7302 80.1819 12.6607C80.4162 12.5913 80.6266 12.4894 80.8132 12.3548C80.9998 12.2247 81.1451 12.0641 81.2492 11.8732C81.3577 11.6867 81.412 11.474 81.412 11.2354V10.3177C81.208 10.6041 80.952 10.8362 80.644 11.0141C80.3359 11.192 79.9801 11.281 79.5766 11.281C79.108 11.281 78.6698 11.192 78.2619 11.0141C77.854 10.8362 77.4939 10.5911 77.1815 10.2787C76.8734 9.96192 76.6305 9.59745 76.4526 9.18525C76.279 8.77305 76.1922 8.33048 76.1922 7.85754C76.1922 7.38459 76.279 6.94202 76.4526 6.52982C76.6305 6.11762 76.8734 5.75532 77.1815 5.44292C77.4939 5.12617 77.854 4.87885 78.2619 4.70096C78.6698 4.52306 79.108 4.43411 79.5766 4.43411C79.9801 4.43411 80.3359 4.52306 80.644 4.70096C80.952 4.87451 81.208 5.10448 81.412 5.39085V4.60333ZM79.5961 9.75148C79.9302 9.75148 80.2253 9.66687 80.4813 9.49766C80.7416 9.3241 80.9455 9.09414 81.0931 8.80777C81.2406 8.51706 81.3143 8.20031 81.3143 7.85754C81.3143 7.51042 81.2384 7.19368 81.0865 6.90731C80.939 6.62094 80.7351 6.39097 80.4748 6.21742C80.2188 6.04386 79.9259 5.95708 79.5961 5.95708C79.2707 5.95708 78.9735 6.04386 78.7045 6.21742C78.4354 6.38664 78.2207 6.61443 78.0601 6.9008C77.8996 7.18717 77.8193 7.50608 77.8193 7.85754C77.8193 8.20899 77.8996 8.5279 78.0601 8.81427C78.2207 9.10064 78.4354 9.32844 78.7045 9.49766C78.9735 9.66687 79.2707 9.75148 79.5961 9.75148Z" fill="white"/>
<path d="M75.4128 6.99844V11.1118H73.8248V7.41498C73.8248 7.15898 73.7618 6.92685 73.636 6.71858C73.5102 6.50597 73.341 6.33892 73.1284 6.21743C72.9201 6.0916 72.688 6.02869 72.432 6.02869C72.176 6.02869 71.9417 6.0916 71.7291 6.21743C71.5208 6.33892 71.3537 6.50597 71.2279 6.71858C71.1064 6.92685 71.0457 7.15898 71.0457 7.41498V11.1118H69.4576L69.4511 4.60335H71.0392L71.0457 5.1826C71.267 4.94829 71.5316 4.76389 71.8397 4.62938C72.1478 4.49054 72.4797 4.42111 72.8355 4.42111C73.3084 4.42111 73.7402 4.53826 74.1307 4.77257C74.5212 5.00253 74.8314 5.31276 75.0614 5.70327C75.2957 6.08943 75.4128 6.52116 75.4128 6.99844Z" fill="white"/>
<path d="M66.3499 4.60333H67.9379V11.1117H66.3499V4.60333ZM67.1569 3.76375C66.9226 3.76375 66.7252 3.68781 66.5646 3.53595C66.4041 3.37975 66.3238 3.1845 66.3238 2.95019C66.3238 2.72023 66.4041 2.52715 66.5646 2.37095C66.7252 2.21474 66.9204 2.13664 67.1504 2.13664C67.3804 2.13664 67.5734 2.21474 67.7296 2.37095C67.8902 2.52715 67.9704 2.72023 67.9704 2.95019C67.9704 3.1845 67.8923 3.37975 67.7361 3.53595C67.5799 3.68781 67.3869 3.76375 67.1569 3.76375Z" fill="white"/>
<path d="M65.0531 6.99844V11.1118H63.465V7.41498C63.465 7.15898 63.4021 6.92685 63.2763 6.71858C63.1504 6.50597 62.9812 6.33892 62.7686 6.21743C62.5603 6.0916 62.3282 6.02869 62.0722 6.02869C61.8162 6.02869 61.5819 6.0916 61.3693 6.21743C61.161 6.33892 60.994 6.50597 60.8682 6.71858C60.7467 6.92685 60.6859 7.15898 60.6859 7.41498V11.1118H59.0979L59.0914 4.60335H60.6794L60.6859 5.1826C60.9072 4.94829 61.1719 4.76389 61.4799 4.62938C61.788 4.49054 62.1199 4.42111 62.4757 4.42111C62.9487 4.42111 63.3804 4.53826 63.7709 4.77257C64.1614 5.00253 64.4716 5.31276 64.7016 5.70327C64.9359 6.08943 65.0531 6.52116 65.0531 6.99844Z" fill="white"/>
<path d="M54.2419 11.1118L54.2354 4.60335H55.8235L55.83 5.1826C56.0513 4.94829 56.3159 4.76389 56.624 4.62938C56.9321 4.49054 57.264 4.42111 57.6198 4.42111C57.8584 4.42111 58.0971 4.45582 58.3357 4.52525L57.7109 6.12632C57.546 6.06123 57.3812 6.02869 57.2163 6.02869C56.9603 6.02869 56.726 6.0916 56.5134 6.21743C56.3051 6.33892 56.1381 6.50597 56.0122 6.71858C55.8907 6.92685 55.83 7.15898 55.83 7.41498V11.1118H54.2419Z" fill="white"/>
<path d="M51.3506 4.60335H52.9386V11.1118H51.3506L51.279 10.3047C51.1011 10.5954 50.8646 10.8319 50.5696 11.0141C50.2789 11.192 49.9339 11.281 49.5347 11.281C49.0531 11.281 48.6019 11.1899 48.181 11.0076C47.7601 10.8254 47.3891 10.5737 47.068 10.2526C46.7513 9.93157 46.5018 9.56059 46.3196 9.13971C46.1417 8.71883 46.0527 8.26758 46.0527 7.78596C46.0527 7.32169 46.1373 6.88563 46.3066 6.47777C46.4801 6.06991 46.7209 5.71195 47.029 5.40388C47.3371 5.09582 47.6928 4.85501 48.0964 4.68145C48.4999 4.50789 48.9338 4.42111 49.3981 4.42111C49.8276 4.42111 50.2116 4.51657 50.55 4.70748C50.8928 4.8984 51.1835 5.14138 51.4222 5.43642L51.3506 4.60335ZM49.4957 9.7515C49.8341 9.7515 50.1335 9.66689 50.3938 9.49767C50.6542 9.32845 50.8581 9.10066 51.0056 8.81429C51.1532 8.52358 51.2269 8.20467 51.2269 7.85755C51.2269 7.5061 51.1532 7.18719 51.0056 6.90082C50.8581 6.61011 50.652 6.38014 50.3873 6.21093C50.127 6.04171 49.8298 5.9571 49.4957 5.9571C49.1616 5.9571 48.8557 6.04388 48.578 6.21743C48.3046 6.38665 48.0855 6.61445 47.9206 6.90082C47.7601 7.18719 47.6798 7.5061 47.6798 7.85755C47.6798 8.20901 47.7623 8.52792 47.9271 8.81429C48.092 9.10066 48.3111 9.32845 48.5845 9.49767C48.8622 9.66689 49.1659 9.7515 49.4957 9.7515Z" fill="white"/>
<path d="M42.15 11.281C41.5512 11.281 41.0045 11.1269 40.5098 10.8189C40.0195 10.5108 39.6269 10.0964 39.3318 9.57577C39.0411 9.0551 38.8958 8.48019 38.8958 7.85105C38.8958 7.3781 38.9804 6.93553 39.1496 6.52333C39.3188 6.10679 39.5509 5.74232 39.846 5.42992C40.1454 5.11317 40.4925 4.86585 40.8873 4.68796C41.2822 4.51006 41.703 4.42111 42.15 4.42111C42.6576 4.42111 43.1219 4.52959 43.5428 4.74653C43.968 4.95914 44.3281 5.25202 44.6232 5.62517C44.9182 5.99832 45.133 6.42353 45.2675 6.90082C45.402 7.3781 45.4324 7.87708 45.3586 8.39775H40.601C40.6617 8.64073 40.7615 8.85985 40.9003 9.0551C41.0392 9.24602 41.2149 9.40005 41.4275 9.5172C41.6401 9.63001 41.8809 9.68859 42.15 9.69293C42.4277 9.69727 42.6793 9.63218 42.9049 9.49767C43.1349 9.35883 43.3258 9.17225 43.4777 8.93795L45.0983 9.31544C44.8336 9.89252 44.4387 10.3655 43.9137 10.7343C43.3887 11.0987 42.8008 11.281 42.15 11.281ZM40.5489 7.20671H43.751C43.7033 6.94638 43.6013 6.71207 43.4451 6.5038C43.2933 6.2912 43.1045 6.12198 42.8789 5.99615C42.6533 5.87032 42.4103 5.8074 42.15 5.8074C41.8896 5.8074 41.6488 5.87032 41.4275 5.99615C41.2062 6.11764 41.0175 6.28469 40.8613 6.4973C40.7094 6.70556 40.6053 6.94204 40.5489 7.20671Z" fill="white"/>
<path d="M33.0066 11.1118V2H34.5947V9.52372H38.3891V11.1118H33.0066Z" fill="white"/>
<rect width="11.8859" height="26.0005" rx="2.16671" fill="white"/>
<rect opacity="0.6" x="13.3712" y="12.6288" width="12.6288" height="13.3717" rx="3.25006" fill="white"/>
<rect opacity="0.6" x="14.1148" width="11.1431" height="11.1431" rx="5.57154" fill="white"/>
</svg>
