<svg width="170" height="34" viewBox="0 0 170 34" fill="none" xmlns="http://www.w3.org/2000/svg">
<rect y="5" width="10.9714" height="24" rx="2" fill="white"/>
<rect opacity="0.6" x="12.3424" y="16.6571" width="11.6571" height="12.3429" rx="3" fill="white"/>
<rect opacity="0.6" x="13.0288" y="5" width="10.2857" height="10.2857" rx="5.14286" fill="white"/>
<path d="M168.404 16.1431H166.666V22.915H164.48V16.1431H163.154V13.9575H164.48V11.1448H166.666V13.9575H168.404V16.1431Z" fill="white"/>
<path d="M157.729 23.1479C156.905 23.1479 156.152 22.9359 155.472 22.5119C154.797 22.0879 154.256 21.5176 153.85 20.801C153.45 20.0844 153.25 19.2932 153.25 18.4273C153.25 17.7764 153.367 17.1673 153.599 16.6C153.832 16.0267 154.152 15.5251 154.558 15.0951C154.97 14.6592 155.448 14.3188 155.991 14.074C156.535 13.8291 157.114 13.7067 157.729 13.7067C158.428 13.7067 159.067 13.856 159.646 14.1546C160.231 14.4472 160.727 14.8503 161.133 15.3638C161.539 15.8774 161.834 16.4626 162.02 17.1195C162.205 17.7764 162.246 18.4631 162.145 19.1797H155.597C155.681 19.5141 155.818 19.8157 156.009 20.0844C156.2 20.3472 156.442 20.5592 156.735 20.7204C157.027 20.8757 157.359 20.9563 157.729 20.9623C158.111 20.9682 158.457 20.8787 158.768 20.6935C159.084 20.5025 159.347 20.2457 159.556 19.9232L161.787 20.4427C161.422 21.237 160.879 21.8879 160.156 22.3955C159.434 22.8971 158.625 23.1479 157.729 23.1479ZM155.525 17.5405H159.932C159.867 17.1822 159.726 16.8597 159.511 16.5731C159.302 16.2805 159.043 16.0476 158.732 15.8744C158.422 15.7012 158.087 15.6146 157.729 15.6146C157.371 15.6146 157.039 15.7012 156.735 15.8744C156.43 16.0416 156.17 16.2715 155.955 16.5641C155.746 16.8508 155.603 17.1762 155.525 17.5405Z" fill="white"/>
<path d="M152.178 17.2539V22.915H149.992V17.8271C149.992 17.4748 149.906 17.1553 149.733 16.8687C149.559 16.5761 149.326 16.3462 149.034 16.179C148.747 16.0058 148.428 15.9192 148.075 15.9192C147.723 15.9192 147.401 16.0058 147.108 16.179C146.821 16.3462 146.591 16.5761 146.418 16.8687C146.251 17.1553 146.167 17.4748 146.167 17.8271V22.915H143.982L143.973 13.9575H146.158L146.167 14.7547C146.472 14.4323 146.836 14.1785 147.26 13.9933C147.684 13.8022 148.141 13.7067 148.631 13.7067C149.282 13.7067 149.876 13.8679 150.413 14.1904C150.951 14.5069 151.378 14.9339 151.694 15.4713C152.017 16.0028 152.178 16.597 152.178 17.2539Z" fill="white"/>
<path d="M139.704 13.9575H141.89V22.915H139.704V13.9575ZM140.815 12.802C140.492 12.802 140.221 12.6975 140 12.4885C139.779 12.2735 139.668 12.0048 139.668 11.6823C139.668 11.3658 139.779 11.1001 140 10.8851C140.221 10.6701 140.489 10.5626 140.806 10.5626C141.122 10.5626 141.388 10.6701 141.603 10.8851C141.824 11.1001 141.935 11.3658 141.935 11.6823C141.935 12.0048 141.827 12.2735 141.612 12.4885C141.397 12.6975 141.131 12.802 140.815 12.802Z" fill="white"/>
<path d="M133.762 13.7067C134.634 13.7067 135.428 13.9187 136.145 14.3427C136.861 14.7667 137.432 15.337 137.856 16.0536C138.28 16.7642 138.492 17.5525 138.492 18.4183C138.492 19.0693 138.369 19.6814 138.125 20.2546C137.88 20.8279 137.539 21.3325 137.103 21.7685C136.673 22.1984 136.172 22.5358 135.598 22.7806C135.031 23.0255 134.419 23.1479 133.762 23.1479C133.201 23.1479 132.702 23.0225 132.266 22.7717C131.836 22.5149 131.475 22.1835 131.182 21.7774V22.915H128.997V9.47875H131.182V15.0772C131.475 14.6711 131.836 14.3427 132.266 14.0919C132.702 13.8351 133.201 13.7067 133.762 13.7067ZM133.735 21.0339C134.201 21.0339 134.622 20.9175 134.998 20.6846C135.381 20.4457 135.685 20.1292 135.912 19.7351C136.139 19.341 136.252 18.902 136.252 18.4183C136.252 17.9406 136.139 17.5047 135.912 17.1105C135.685 16.7104 135.381 16.3939 134.998 16.1611C134.616 15.9282 134.195 15.8117 133.735 15.8117C133.281 15.8117 132.875 15.9311 132.517 16.17C132.159 16.4029 131.878 16.7194 131.675 17.1195C131.472 17.5136 131.371 17.9466 131.371 18.4183C131.371 18.902 131.472 19.344 131.675 19.7441C131.878 20.1382 132.159 20.4517 132.517 20.6846C132.875 20.9175 133.281 21.0339 133.735 21.0339Z" fill="white"/>
<path d="M124.974 13.9575H127.16V22.915H124.974L124.875 21.8043C124.631 22.2044 124.305 22.5298 123.899 22.7806C123.499 23.0255 123.024 23.1479 122.475 23.1479C121.812 23.1479 121.191 23.0225 120.612 22.7717C120.032 22.5209 119.522 22.1745 119.08 21.7326C118.644 21.2907 118.301 20.7801 118.05 20.2009C117.805 19.6216 117.683 19.0006 117.683 18.3377C117.683 17.6988 117.799 17.0986 118.032 16.5373C118.271 15.9759 118.602 15.4833 119.026 15.0593C119.45 14.6353 119.94 14.3039 120.495 14.065C121.051 13.8261 121.648 13.7067 122.287 13.7067C122.878 13.7067 123.406 13.8381 123.872 14.1008C124.344 14.3636 124.744 14.698 125.073 15.1041L124.974 13.9575ZM122.421 21.0429C122.887 21.0429 123.299 20.9264 123.657 20.6935C124.016 20.4607 124.296 20.1471 124.499 19.753C124.702 19.3529 124.804 18.914 124.804 18.4363C124.804 17.9526 124.702 17.5136 124.499 17.1195C124.296 16.7194 124.013 16.4029 123.648 16.17C123.29 15.9371 122.881 15.8207 122.421 15.8207C121.961 15.8207 121.54 15.9401 121.158 16.179C120.782 16.4119 120.48 16.7254 120.253 17.1195C120.032 17.5136 119.922 17.9526 119.922 18.4363C119.922 18.92 120.035 19.3589 120.262 19.753C120.489 20.1471 120.791 20.4607 121.167 20.6935C121.549 20.9264 121.967 21.0429 122.421 21.0429Z" fill="white"/>
<path d="M112.075 23.1479C111.227 23.1479 110.43 22.9807 109.684 22.6463C108.937 22.3059 108.28 21.8371 107.713 21.24C107.152 20.6428 106.71 19.9531 106.387 19.1708C106.071 18.3825 105.912 17.5405 105.912 16.6448C105.912 15.743 106.071 14.901 106.387 14.1187C106.71 13.3305 107.152 12.6408 107.713 12.0496C108.28 11.4524 108.937 10.9866 109.684 10.6522C110.43 10.3118 111.227 10.1416 112.075 10.1416C113.09 10.1416 114.025 10.3775 114.879 10.8493C115.733 11.315 116.44 11.9391 117.002 12.7214L115.049 13.7694C114.697 13.3335 114.258 12.9841 113.732 12.7214C113.213 12.4586 112.66 12.3272 112.075 12.3272C111.526 12.3272 111.009 12.4407 110.526 12.6676C110.042 12.8886 109.618 13.1991 109.254 13.5992C108.889 13.9933 108.606 14.4532 108.403 14.9787C108.2 15.4982 108.098 16.0536 108.098 16.6448C108.098 17.2419 108.2 17.8003 108.403 18.3198C108.612 18.8393 108.898 19.2992 109.263 19.6993C109.627 20.0934 110.048 20.4039 110.526 20.6308C111.009 20.8518 111.526 20.9623 112.075 20.9623C112.672 20.9623 113.228 20.8309 113.741 20.5681C114.261 20.2994 114.697 19.9471 115.049 19.5112L117.002 20.5681C116.44 21.3445 115.733 21.9685 114.879 22.4403C114.025 22.912 113.09 23.1479 112.075 23.1479Z" fill="white"/>
<path d="M97.6267 13.9575H99.8124V23.0852C99.8124 23.7301 99.681 24.3154 99.4182 24.8409C99.1555 25.3724 98.7972 25.8262 98.3433 26.2024C97.8895 26.5846 97.3699 26.8772 96.7847 27.0802C96.1995 27.2893 95.5844 27.3938 94.9395 27.3938C94.3124 27.3938 93.7093 27.2654 93.1301 27.0086C92.5508 26.7518 92.0372 26.3995 91.5894 25.9516C91.1475 25.5097 90.8101 25.0051 90.5772 24.4378L92.5747 23.5331C92.6941 23.8615 92.8733 24.1482 93.1121 24.393C93.357 24.6438 93.6376 24.8379 93.9541 24.9752C94.2706 25.1186 94.5991 25.1902 94.9395 25.1902C95.2858 25.1902 95.6173 25.1424 95.9338 25.0469C96.2562 24.9513 96.5459 24.811 96.8026 24.6259C97.0594 24.4467 97.2595 24.2258 97.4028 23.963C97.5521 23.7063 97.6267 23.4136 97.6267 23.0852V21.8222C97.3461 22.2163 96.9937 22.5358 96.5697 22.7806C96.1457 23.0255 95.6561 23.1479 95.1007 23.1479C94.4558 23.1479 93.8526 23.0255 93.2913 22.7806C92.73 22.5358 92.2343 22.1984 91.8043 21.7684C91.3804 21.3325 91.0459 20.8309 90.8011 20.2636C90.5622 19.6963 90.4428 19.0872 90.4428 18.4363C90.4428 17.7853 90.5622 17.1762 90.8011 16.6089C91.0459 16.0416 91.3804 15.543 91.8043 15.113C92.2343 14.6771 92.73 14.3367 93.2913 14.0919C93.8526 13.847 94.4558 13.7246 95.1007 13.7246C95.6561 13.7246 96.1457 13.847 96.5697 14.0919C96.9937 14.3307 97.3461 14.6472 97.6267 15.0414V13.9575ZM95.1276 21.0429C95.5874 21.0429 95.9935 20.9264 96.3458 20.6935C96.7041 20.4547 96.9848 20.1382 97.1878 19.7441C97.3908 19.344 97.4924 18.908 97.4924 18.4363C97.4924 17.9585 97.3879 17.5226 97.1788 17.1285C96.9758 16.7343 96.6951 16.4178 96.3368 16.179C95.9845 15.9401 95.5814 15.8207 95.1276 15.8207C94.6797 15.8207 94.2706 15.9401 93.9004 16.179C93.5302 16.4119 93.2346 16.7254 93.0136 17.1195C92.7927 17.5136 92.6822 17.9526 92.6822 18.4363C92.6822 18.92 92.7927 19.3589 93.0136 19.753C93.2346 20.1471 93.5302 20.4607 93.9004 20.6935C94.2706 20.9264 94.6797 21.0429 95.1276 21.0429Z" fill="white"/>
<path d="M89.3701 17.2539V22.915H87.1845V17.8271C87.1845 17.4748 87.0979 17.1553 86.9247 16.8687C86.7516 16.5761 86.5187 16.3462 86.2261 16.179C85.9394 16.0058 85.6199 15.9192 85.2676 15.9192C84.9153 15.9192 84.5928 16.0058 84.3002 16.179C84.0136 16.3462 83.7836 16.5761 83.6105 16.8687C83.4433 17.1553 83.3597 17.4748 83.3597 17.8271V22.915H81.174L81.1651 13.9575H83.3507L83.3597 14.7547C83.6642 14.4323 84.0285 14.1785 84.4525 13.9933C84.8765 13.8022 85.3333 13.7067 85.823 13.7067C86.4739 13.7067 87.0681 13.8679 87.6055 14.1904C88.143 14.5069 88.5699 14.9339 88.8864 15.4713C89.2089 16.0028 89.3701 16.597 89.3701 17.2539Z" fill="white"/>
<path d="M76.8968 13.9575H79.0824V22.915H76.8968V13.9575ZM78.0075 12.802C77.6851 12.802 77.4134 12.6975 77.1924 12.4885C76.9715 12.2735 76.861 12.0048 76.861 11.6823C76.861 11.3658 76.9715 11.1001 77.1924 10.8851C77.4134 10.6701 77.6821 10.5626 77.9986 10.5626C78.3151 10.5626 78.5808 10.6701 78.7958 10.8851C79.0168 11.1001 79.1272 11.3658 79.1272 11.6823C79.1272 12.0048 79.0197 12.2735 78.8048 12.4885C78.5898 12.6975 78.324 12.802 78.0075 12.802Z" fill="white"/>
<path d="M75.112 17.2539V22.915H72.9264V17.8271C72.9264 17.4748 72.8398 17.1553 72.6666 16.8687C72.4935 16.5761 72.2606 16.3462 71.968 16.179C71.6813 16.0058 71.3618 15.9192 71.0095 15.9192C70.6572 15.9192 70.3347 16.0058 70.0421 16.179C69.7554 16.3462 69.5255 16.5761 69.3524 16.8687C69.1852 17.1553 69.1015 17.4748 69.1015 17.8271V22.915H66.9159L66.907 13.9575H69.0926L69.1015 14.7547C69.4061 14.4323 69.7704 14.1785 70.1944 13.9933C70.6184 13.8022 71.0752 13.7067 71.5649 13.7067C72.2158 13.7067 72.81 13.8679 73.3474 14.1904C73.8849 14.5069 74.3118 14.9339 74.6283 15.4713C74.9508 16.0028 75.112 16.597 75.112 17.2539Z" fill="white"/>
<path d="M60.2327 22.915L60.2238 13.9575H62.4094L62.4184 14.7547C62.7229 14.4323 63.0872 14.1785 63.5112 13.9933C63.9352 13.8022 64.392 13.7067 64.8817 13.7067C65.2101 13.7067 65.5386 13.7545 65.867 13.85L65.0071 16.0536C64.7802 15.964 64.5532 15.9192 64.3263 15.9192C63.974 15.9192 63.6515 16.0058 63.3589 16.179C63.0723 16.3462 62.8423 16.5761 62.6692 16.8687C62.502 17.1553 62.4184 17.4748 62.4184 17.8271V22.915H60.2327Z" fill="white"/>
<path d="M56.2534 13.9575H58.439V22.915H56.2534L56.1548 21.8043C55.91 22.2044 55.5845 22.5298 55.1785 22.7806C54.7784 23.0255 54.3036 23.1479 53.7542 23.1479C53.0914 23.1479 52.4703 23.0225 51.891 22.7717C51.3118 22.5209 50.8012 22.1745 50.3593 21.7326C49.9234 21.2907 49.58 20.7801 49.3292 20.2009C49.0844 19.6216 48.9619 19.0006 48.9619 18.3377C48.9619 17.6988 49.0784 17.0986 49.3113 16.5373C49.5502 15.9759 49.8816 15.4833 50.3056 15.0593C50.7296 14.6353 51.2192 14.3039 51.7746 14.065C52.33 13.8261 52.9271 13.7067 53.5661 13.7067C54.1573 13.7067 54.6858 13.8381 55.1516 14.1008C55.6233 14.3636 56.0234 14.698 56.3519 15.1041L56.2534 13.9575ZM53.7005 21.0429C54.1663 21.0429 54.5783 20.9264 54.9366 20.6935C55.2949 20.4607 55.5756 20.1471 55.7786 19.753C55.9816 19.3529 56.0832 18.914 56.0832 18.4363C56.0832 17.9526 55.9816 17.5136 55.7786 17.1195C55.5756 16.7194 55.2919 16.4029 54.9276 16.17C54.5693 15.9371 54.1603 15.8207 53.7005 15.8207C53.2406 15.8207 52.8196 15.9401 52.4375 16.179C52.0612 16.4119 51.7597 16.7254 51.5327 17.1195C51.3118 17.5136 51.2013 17.9526 51.2013 18.4363C51.2013 18.92 51.3148 19.3589 51.5417 19.753C51.7686 20.1471 52.0702 20.4607 52.4464 20.6935C52.8286 20.9264 53.2466 21.0429 53.7005 21.0429Z" fill="white"/>
<path d="M43.5906 23.1479C42.7665 23.1479 42.0141 22.9359 41.3333 22.5119C40.6585 22.0879 40.1181 21.5176 39.712 20.801C39.3119 20.0844 39.1118 19.2932 39.1118 18.4273C39.1118 17.7764 39.2283 17.1673 39.4612 16.6C39.6941 16.0267 40.0136 15.5251 40.4196 15.0951C40.8317 14.6592 41.3094 14.3188 41.8528 14.074C42.3962 13.8291 42.9755 13.7067 43.5906 13.7067C44.2893 13.7067 44.9282 13.856 45.5075 14.1546C46.0927 14.4472 46.5884 14.8503 46.9944 15.3638C47.4005 15.8774 47.6961 16.4626 47.8812 17.1195C48.0663 17.7764 48.1082 18.4631 48.0066 19.1797H41.4587C41.5423 19.5141 41.6796 19.8157 41.8707 20.0844C42.0618 20.3472 42.3037 20.5592 42.5963 20.7204C42.8889 20.8757 43.2203 20.9563 43.5906 20.9623C43.9728 20.9682 44.3191 20.8787 44.6297 20.6935C44.9462 20.5025 45.2089 20.2457 45.4179 19.9232L47.6483 20.4427C47.2841 21.237 46.7406 21.8879 46.0181 22.3955C45.2955 22.8971 44.4863 23.1479 43.5906 23.1479ZM41.387 17.5405H45.7941C45.7284 17.1822 45.5881 16.8597 45.3731 16.5731C45.1641 16.2805 44.9043 16.0476 44.5938 15.8744C44.2833 15.7012 43.9489 15.6146 43.5906 15.6146C43.2323 15.6146 42.9009 15.7012 42.5963 15.8744C42.2917 16.0416 42.032 16.2715 41.817 16.5641C41.608 16.8508 41.4647 17.1762 41.387 17.5405Z" fill="white"/>
<path d="M31.0066 22.915V10.3745H33.1923V20.7294H38.4145V22.915H31.0066Z" fill="white"/>
</svg>
