<svg width="1742" height="543" viewBox="0 0 1742 543" fill="none" xmlns="http://www.w3.org/2000/svg">
<path d="M485.616 420.558C485.616 492.559 435.395 541.008 366.503 541.008C331.835 541.008 301.611 527.673 282.504 501.004V538.336H241.617V208.556H284.285V338.332C303.838 312.999 333.171 300.555 366.511 300.555C435.403 300.555 485.625 348.558 485.625 420.558H485.616ZM442.503 420.558C442.503 370.337 408.28 337.895 362.949 337.895C317.617 337.895 283.84 370.337 283.84 420.558C283.84 470.78 318.063 503.667 362.949 503.667C407.835 503.667 442.503 470.78 442.503 420.558Z" fill="black"/>
<path d="M504.785 420.559C504.785 350.339 556.788 300.555 627.453 300.555C698.118 300.555 749.675 350.331 749.675 420.559C749.675 490.786 698.118 541.008 627.453 541.008C556.788 541.008 504.785 490.786 504.785 420.559ZM706.57 420.559C706.57 370.337 672.792 337.895 627.461 337.895C582.129 337.895 547.906 370.337 547.906 420.559C547.906 470.78 582.129 503.668 627.461 503.668C672.792 503.668 706.57 470.78 706.57 420.559Z" fill="black"/>
<path d="M970.185 396.115V538.335H929.736V507.221C915.51 528.555 889.294 540.999 852.399 540.999C799.069 540.999 765.291 512.557 765.291 471.662C765.291 433.884 789.734 402.77 859.961 402.77H927.517V394.326C927.517 358.329 906.629 337.433 864.406 337.433C836.409 337.433 807.959 347.213 789.742 362.766L771.962 330.77C796.405 311.217 831.519 300.546 869.296 300.546C933.743 300.546 970.185 331.66 970.185 396.099V396.115ZM927.517 466.335V433.447H861.735C819.512 433.447 807.513 449.891 807.513 469.889C807.513 493.441 827.066 508.112 859.516 508.112C891.966 508.112 916.846 493.441 927.517 466.335Z" fill="black"/>
<path d="M1132.68 300.555V341.887C1129.13 341.441 1126.02 341.441 1122.9 341.441C1077.13 341.441 1048.69 369.438 1048.69 420.996V538.328H1006.02V302.781H1046.9V342.34C1062.01 314.78 1091.34 300.563 1132.68 300.563V300.555Z" fill="black"/>
<path d="M1381.3 208.556V538.336H1340.41V501.004C1321.31 527.673 1291.08 541.008 1256.41 541.008C1187.52 541.008 1137.3 492.559 1137.3 420.558C1137.3 348.558 1187.52 300.555 1256.41 300.555C1289.75 300.555 1319.08 312.999 1338.64 338.332V208.556H1381.31H1381.3ZM1339.08 420.558C1339.08 370.337 1304.85 337.895 1259.97 337.895C1215.08 337.895 1180.41 370.337 1180.41 420.558C1180.41 470.78 1214.64 503.667 1259.97 503.667C1305.3 503.667 1339.08 470.78 1339.08 420.558Z" fill="black"/>
<path d="M124.702 542.959C100.836 542.959 79.4735 537.802 60.6159 527.49C42.0529 517.177 27.4678 503.034 16.8603 485.06C6.25293 467.086 0.949219 446.461 0.949219 423.183C0.949219 399.906 6.25293 379.281 16.8603 361.307C27.4678 343.333 42.0529 329.337 60.6159 319.319C79.4735 309.006 100.836 303.85 124.702 303.85C145.917 303.85 164.775 308.123 181.275 316.667C198.07 324.918 211.035 337.293 220.169 353.793L187.905 374.566C180.244 363.075 170.815 354.677 159.618 349.374C148.716 343.775 136.93 340.976 124.26 340.976C108.939 340.976 95.2373 344.365 83.1567 351.141C71.076 357.918 61.4999 367.495 54.4283 379.87C47.3566 391.951 43.8209 406.388 43.8209 423.183C43.8209 439.979 47.3566 454.564 54.4283 466.939C61.4999 479.314 71.076 488.891 83.1567 495.667C95.2373 502.444 108.939 505.833 124.26 505.833C136.93 505.833 148.716 503.181 159.618 497.877C170.815 492.279 180.244 483.734 187.905 472.243L220.169 492.574C211.035 508.779 198.07 521.302 181.275 530.142C164.775 538.686 145.917 542.959 124.702 542.959Z" fill="black"/>
<path fill-rule="evenodd" clip-rule="evenodd" d="M1741.37 158.808C1741.37 71.5491 1670.53 0.706726 1583.27 0.706726C1496.01 0.706726 1425.16 71.5491 1425.16 158.808V316.91H1583.27C1670.53 316.91 1741.37 246.068 1741.37 158.808ZM1648.04 223.841C1651.55 220.287 1657.01 219.582 1661.25 222.235V222.308C1666.85 225.837 1667.95 233.626 1663.39 238.397C1653.86 248.401 1640.49 254.218 1624.99 255.411C1606.03 257.237 1573 252.685 1554.62 241.513C1530.48 226.859 1515.42 208.141 1508.57 183.606C1500.17 153.618 1500.09 123.752 1511.69 94.2513C1512.42 92.4451 1513.31 90.6987 1514.19 88.958C1514.28 88.7751 1514.38 88.5923 1514.47 88.4095C1516.47 84.5393 1519.93 82.8598 1524.41 84.4663C1528.58 85.9511 1529.38 89.0423 1528.14 92.8882C1523.39 107.468 1522.05 122.413 1523.39 137.505C1523.44 138.106 1523.49 138.71 1523.53 139.318C1523.84 143.457 1524.17 147.773 1526.99 152.718C1530.53 132.491 1536.64 114.332 1546.83 97.3669C1552.67 87.6306 1559.47 78.4055 1567.37 69.8619C1572.48 64.3365 1577.28 62.9978 1581.28 66.1621C1586.49 70.2757 1584.03 74.4866 1580.89 78.5758C1565.76 98.2431 1554.7 119.395 1551.36 143.273C1550.92 146.535 1550.82 149.797 1551.16 153.18C1552.66 150.635 1554.1 148.078 1555.54 145.528C1559.77 138.03 1563.96 130.6 1569.36 123.752C1579.16 111.338 1590.29 100.044 1605.23 92.1823C1608.5 90.4784 1612.05 89.1154 1615.56 87.801C1619.14 86.4622 1622.29 87.3141 1624.36 90.1377C1626.6 93.1559 1626.31 96.2229 1623.24 98.7543C1622.86 99.0666 1622.49 99.3791 1622.11 99.6917C1617.61 103.447 1613.1 107.21 1608.47 110.827C1607.72 111.411 1606.83 112.134 1605.79 112.994C1605.17 113.493 1604.73 113.855 1604.32 114.191C1603.85 114.574 1603.43 114.923 1602.82 115.403C1597.36 119.687 1592.37 125.505 1588.13 132.466C1597.21 128.304 1607.64 126.016 1619.02 126.016C1637.05 126.016 1652.69 131.858 1663.42 143.103C1667.97 147.85 1666.92 155.59 1661.39 159.144L1661.27 159.217C1657.03 161.943 1651.5 161.261 1647.97 157.683C1640.17 149.821 1629.94 146.121 1618.8 146.121C1593.88 146.121 1575.16 163.622 1575.16 190.689C1575.16 217.756 1593.88 235.476 1618.8 235.476C1629.99 235.476 1640.22 231.752 1648.04 223.841Z" fill="black"/>
</svg>
