<svg width="1698" height="404" viewBox="0 0 1698 404" fill="none" xmlns="http://www.w3.org/2000/svg">
<path d="M334.399 332.709C325.488 327.125 314.02 328.611 306.641 336.093C290.2 352.731 268.693 360.571 245.192 360.571C192.806 360.571 153.475 323.29 153.475 266.344C153.475 209.398 192.806 172.578 245.192 172.578C268.599 172.578 290.106 180.361 306.491 196.906C313.917 204.435 325.545 205.864 334.446 200.13L334.7 199.979C346.328 192.506 348.528 176.216 338.949 166.233C316.417 142.573 283.545 130.287 245.644 130.287C221.73 130.287 199.809 135.1 180.708 143.861C189.619 129.215 200.119 116.976 211.587 107.962C213.993 106.063 215.018 105.142 217.838 102.895C220.019 101.09 221.899 99.5673 223.469 98.3359C234.016 90.092 244.262 81.4909 254.498 72.9368C260.947 67.6069 261.567 61.1584 256.858 54.8133C252.506 48.8725 245.897 47.077 238.368 49.8971C230.989 52.6607 223.516 55.5278 216.654 59.1186C185.267 75.6628 161.86 99.4169 141.274 125.54C126.065 144.848 115.414 166.355 103.025 187.449C102.311 180.333 102.517 173.471 103.439 166.609C110.451 116.375 133.707 71.8746 165.498 30.4952C172.106 21.8941 177.277 13.0298 166.316 4.38172C157.922 -2.27357 147.826 0.537068 137.072 12.165C120.481 30.138 106.193 49.5493 93.9069 70.0321C72.5028 105.724 59.6528 143.926 52.2268 186.481C45.4117 174.552 45.5151 164.362 44.6503 154.473C41.8302 122.729 44.6503 91.2858 54.6332 60.6132C57.2464 52.5197 55.5544 46.0148 46.8029 42.894C37.384 39.51 30.1083 43.0444 25.9064 51.1943C23.8572 55.2363 21.761 59.2878 20.069 63.4803C-4.28675 125.512 -4.13635 188.351 13.5265 251.436C27.9181 303.052 59.5588 342.429 110.31 373.261C148.916 396.771 218.355 406.34 258.202 402.505C290.774 399.995 318.88 387.756 338.902 366.709C348.481 356.67 346.178 340.286 334.399 332.859V332.709Z" fill="black"/>
<path d="M658.082 262.361C658.082 345.956 599.773 402.206 519.788 402.206C479.537 402.206 444.446 386.724 422.262 355.761V399.104H374.791V16.2189H424.33V166.893C447.031 137.48 481.088 123.032 519.797 123.032C599.783 123.032 658.092 178.766 658.092 262.361H658.082ZM608.027 262.361C608.027 204.052 568.292 166.386 515.661 166.386C463.03 166.386 423.813 204.052 423.813 262.361C423.813 320.67 463.547 358.853 515.661 358.853C567.775 358.853 608.027 320.67 608.027 262.361Z" fill="black"/>
<path d="M680.324 262.361C680.324 180.834 740.701 123.033 822.745 123.033C904.79 123.033 964.65 180.825 964.65 262.361C964.65 343.898 904.79 402.207 822.745 402.207C740.701 402.207 680.324 343.898 680.324 262.361ZM914.603 262.361C914.603 204.052 875.386 166.386 822.755 166.386C770.123 166.386 730.389 204.052 730.389 262.361C730.389 320.67 770.123 358.854 822.755 358.854C875.386 358.854 914.603 320.67 914.603 262.361Z" fill="black"/>
<path d="M1220.7 233.982V399.105H1173.73V362.98C1157.22 387.749 1126.78 402.197 1083.94 402.197C1022.02 402.197 982.807 369.175 982.807 321.695C982.807 277.834 1011.19 241.709 1092.72 241.709H1171.16V231.905C1171.16 190.112 1146.9 165.85 1097.88 165.85C1065.38 165.85 1032.35 177.205 1011.19 195.263L990.552 158.114C1018.93 135.412 1059.7 123.023 1103.56 123.023C1178.39 123.023 1220.7 159.148 1220.7 233.963V233.982ZM1171.16 315.509V277.326H1094.78C1045.76 277.326 1031.83 296.418 1031.83 319.636C1031.83 346.981 1054.53 364.014 1092.21 364.014C1129.88 364.014 1158.77 346.981 1171.16 315.509Z" fill="black"/>
<path d="M1409.34 123.033V171.02C1405.22 170.503 1401.61 170.503 1397.99 170.503C1344.84 170.503 1311.82 203.009 1311.82 262.869V399.095H1262.28V125.618H1309.75V171.547C1327.29 139.549 1361.35 123.042 1409.34 123.042V123.033Z" fill="black"/>
<path d="M1698 16.2189V399.104H1650.53V355.761C1628.34 386.724 1593.25 402.206 1553 402.206C1473.01 402.206 1414.71 345.956 1414.71 262.361C1414.71 178.766 1473.01 123.032 1553 123.032C1591.7 123.032 1625.76 137.48 1648.47 166.893V16.2189H1698.01H1698ZM1648.97 262.361C1648.97 204.052 1609.24 166.386 1557.13 166.386C1505.01 166.386 1464.76 204.052 1464.76 262.361C1464.76 320.67 1504.5 358.853 1557.13 358.853C1609.76 358.853 1648.97 320.67 1648.97 262.361Z" fill="black"/>
</svg>
