<svg width="1698" height="403" viewBox="0 0 1698 403" fill="none" xmlns="http://www.w3.org/2000/svg">
<path d="M334.399 332.073C325.488 326.489 314.02 327.974 306.641 335.457C290.2 352.095 268.693 359.934 245.192 359.934C192.806 359.934 153.475 322.654 153.475 265.708C153.475 208.762 192.806 171.942 245.192 171.942C268.599 171.942 290.106 179.725 306.491 196.269C313.917 203.799 325.545 205.227 334.446 199.493L334.7 199.343C346.328 191.87 348.528 175.579 338.949 165.596C316.417 141.936 283.545 129.65 245.644 129.65C221.73 129.65 199.809 134.463 180.708 143.224C189.619 128.579 200.119 116.34 211.587 107.325C213.993 105.426 215.018 104.505 217.838 102.258C220.019 100.454 221.899 98.9308 223.469 97.6994C234.016 89.4555 244.262 80.8544 254.498 72.3003C260.947 66.9704 261.567 60.5219 256.858 54.1769C252.506 48.236 245.897 46.4406 238.368 49.2606C230.989 52.0242 223.516 54.8913 216.654 58.4821C185.267 75.0263 161.86 98.7804 141.274 124.903C126.065 144.211 115.414 165.719 103.025 186.813C102.311 179.697 102.517 172.835 103.439 165.972C110.451 115.738 133.707 71.2381 165.498 29.8588C172.106 21.2577 177.277 12.3933 166.316 3.74524C157.922 -2.91004 147.826 -0.0994063 137.072 11.5285C120.481 29.5016 106.193 48.9128 93.9069 69.3957C72.5028 105.088 59.6528 143.29 52.2268 185.844C45.4117 173.916 45.5151 163.726 44.6503 153.837C41.8302 122.093 44.6503 90.6493 54.6332 59.9767C57.2464 51.8832 55.5544 45.3784 46.8029 42.2575C37.384 38.8735 30.1083 42.4079 25.9064 50.5578C23.8572 54.5999 21.761 58.6513 20.069 62.8438C-4.28675 124.875 -4.13635 187.715 13.5265 250.799C27.9181 302.415 59.5588 341.792 110.31 372.625C148.916 396.134 218.355 405.704 258.202 401.868C290.774 399.359 318.88 387.12 338.902 366.073C348.481 356.033 346.178 339.649 334.399 332.223V332.073Z" fill="white"/>
<path d="M658.082 261.724C658.082 345.319 599.773 401.569 519.788 401.569C479.537 401.569 444.446 386.087 422.262 355.123V398.467H374.791V15.5818H424.33V166.256C447.031 136.843 481.088 122.395 519.797 122.395C599.783 122.395 658.092 178.129 658.092 261.724H658.082ZM608.027 261.724C608.027 203.415 568.292 165.749 515.661 165.749C463.03 165.749 423.813 203.415 423.813 261.724C423.813 320.033 463.547 358.216 515.661 358.216C567.775 358.216 608.027 320.033 608.027 261.724Z" fill="white"/>
<path d="M680.324 261.724C680.324 180.197 740.701 122.396 822.745 122.396C904.79 122.396 964.65 180.188 964.65 261.724C964.65 343.261 904.79 401.57 822.745 401.57C740.701 401.57 680.324 343.261 680.324 261.724ZM914.603 261.724C914.603 203.415 875.386 165.749 822.755 165.749C770.123 165.749 730.389 203.415 730.389 261.724C730.389 320.033 770.123 358.217 822.755 358.217C875.386 358.217 914.603 320.033 914.603 261.724Z" fill="white"/>
<path d="M1220.7 233.345V398.468H1173.73V362.343C1157.22 387.113 1126.78 401.561 1083.94 401.561C1022.02 401.561 982.807 368.538 982.807 321.058C982.807 277.197 1011.19 241.072 1092.72 241.072H1171.16V231.268C1171.16 189.475 1146.9 165.213 1097.88 165.213C1065.38 165.213 1032.35 176.569 1011.19 194.626L990.552 157.477C1018.93 134.776 1059.7 122.386 1103.56 122.386C1178.39 122.386 1220.7 158.511 1220.7 233.327V233.345ZM1171.16 314.873V276.689H1094.78C1045.76 276.689 1031.83 295.781 1031.83 318.999C1031.83 346.344 1054.53 363.377 1092.21 363.377C1129.88 363.377 1158.77 346.344 1171.16 314.873Z" fill="white"/>
<path d="M1409.34 122.396V170.383C1405.22 169.866 1401.61 169.866 1397.99 169.866C1344.84 169.866 1311.82 202.372 1311.82 262.232V398.458H1262.28V124.981H1309.75V170.91C1327.29 138.912 1361.35 122.405 1409.34 122.405V122.396Z" fill="white"/>
<path d="M1698 15.5818V398.467H1650.53V355.123C1628.34 386.087 1593.25 401.569 1553 401.569C1473.01 401.569 1414.71 345.319 1414.71 261.724C1414.71 178.129 1473.01 122.395 1553 122.395C1591.7 122.395 1625.76 136.843 1648.47 166.256V15.5818H1698.01H1698ZM1648.97 261.724C1648.97 203.415 1609.24 165.749 1557.13 165.749C1505.01 165.749 1464.76 203.415 1464.76 261.724C1464.76 320.033 1504.5 358.216 1557.13 358.216C1609.76 358.216 1648.97 320.033 1648.97 261.724Z" fill="white"/>
</svg>
